<svg width="279" height="305" viewBox="0 0 279 305" fill="none" xmlns="http://www.w3.org/2000/svg">
<path d="M33.75 210.797V194.273C33.75 192.867 34.0625 191.812 34.6875 191.109C35.3281 190.406 36.1641 190.055 37.1953 190.055C38.2734 190.055 39.125 190.406 39.75 191.109C40.3906 191.812 40.7109 192.867 40.7109 194.273V211.172C40.7109 213.094 40.9219 214.703 41.3438 216C41.7812 217.281 42.5469 218.281 43.6406 219C44.7344 219.703 46.2656 220.055 48.2344 220.055C50.9531 220.055 52.875 219.336 54 217.898C55.125 216.445 55.6875 214.25 55.6875 211.312V194.273C55.6875 192.852 56 191.797 56.625 191.109C57.25 190.406 58.0859 190.055 59.1328 190.055C60.1797 190.055 61.0234 190.406 61.6641 191.109C62.3203 191.797 62.6484 192.852 62.6484 194.273V210.797C62.6484 213.484 62.3828 215.727 61.8516 217.523C61.3359 219.32 60.3516 220.898 58.8984 222.258C57.6484 223.414 56.1953 224.258 54.5391 224.789C52.8828 225.32 50.9453 225.586 48.7266 225.586C46.0859 225.586 43.8125 225.305 41.9062 224.742C40 224.164 38.4453 223.281 37.2422 222.094C36.0391 220.891 35.1562 219.359 34.5938 217.5C34.0312 215.625 33.75 213.391 33.75 210.797ZM75.5391 203.109V203.883C76.6641 202.398 77.8906 201.312 79.2188 200.625C80.5625 199.922 82.1016 199.57 83.8359 199.57C85.5234 199.57 87.0312 199.938 88.3594 200.672C89.6875 201.406 90.6797 202.445 91.3359 203.789C91.7578 204.57 92.0312 205.414 92.1562 206.32C92.2812 207.227 92.3438 208.383 92.3438 209.789V221.695C92.3438 222.977 92.0469 223.945 91.4531 224.602C90.875 225.258 90.1172 225.586 89.1797 225.586C88.2266 225.586 87.4531 225.25 86.8594 224.578C86.2656 223.906 85.9688 222.945 85.9688 221.695V211.031C85.9688 208.922 85.6719 207.312 85.0781 206.203C84.5 205.078 83.3359 204.516 81.5859 204.516C80.4453 204.516 79.4062 204.859 78.4688 205.547C77.5312 206.219 76.8438 207.148 76.4062 208.336C76.0938 209.289 75.9375 211.07 75.9375 213.68V221.695C75.9375 222.992 75.6328 223.969 75.0234 224.625C74.4297 225.266 73.6562 225.586 72.7031 225.586C71.7812 225.586 71.0234 225.25 70.4297 224.578C69.8359 223.906 69.5391 222.945 69.5391 221.695V203.203C69.5391 201.984 69.8047 201.078 70.3359 200.484C70.8672 199.875 71.5938 199.57 72.5156 199.57C73.0781 199.57 73.5859 199.703 74.0391 199.969C74.4922 200.234 74.8516 200.633 75.1172 201.164C75.3984 201.695 75.5391 202.344 75.5391 203.109ZM114.68 222.656L109.031 213.375L105.562 216.656V221.742C105.562 222.977 105.234 223.93 104.578 224.602C103.938 225.258 103.195 225.586 102.352 225.586C101.367 225.586 100.594 225.258 100.031 224.602C99.4688 223.945 99.1875 222.977 99.1875 221.695V194.414C99.1875 192.992 99.4609 191.914 100.008 191.18C100.555 190.43 101.336 190.055 102.352 190.055C103.336 190.055 104.117 190.391 104.695 191.062C105.273 191.734 105.562 192.727 105.562 194.039V209.555L112.758 202.008C113.648 201.07 114.328 200.43 114.797 200.086C115.266 199.742 115.836 199.57 116.508 199.57C117.305 199.57 117.969 199.828 118.5 200.344C119.031 200.844 119.297 201.477 119.297 202.242C119.297 203.18 118.43 204.43 116.695 205.992L113.297 209.109L119.859 219.422C120.344 220.188 120.688 220.773 120.891 221.18C121.109 221.57 121.219 221.945 121.219 222.305C121.219 223.32 120.938 224.125 120.375 224.719C119.828 225.297 119.102 225.586 118.195 225.586C117.414 225.586 116.812 225.375 116.391 224.953C115.969 224.531 115.398 223.766 114.68 222.656ZM132.07 203.109V203.883C133.195 202.398 134.422 201.312 135.75 200.625C137.094 199.922 138.633 199.57 140.367 199.57C142.055 199.57 143.562 199.938 144.891 200.672C146.219 201.406 147.211 202.445 147.867 203.789C148.289 204.57 148.562 205.414 148.688 206.32C148.812 207.227 148.875 208.383 148.875 209.789V221.695C148.875 222.977 148.578 223.945 147.984 224.602C147.406 225.258 146.648 225.586 145.711 225.586C144.758 225.586 143.984 225.25 143.391 224.578C142.797 223.906 142.5 222.945 142.5 221.695V211.031C142.5 208.922 142.203 207.312 141.609 206.203C141.031 205.078 139.867 204.516 138.117 204.516C136.977 204.516 135.938 204.859 135 205.547C134.062 206.219 133.375 207.148 132.938 208.336C132.625 209.289 132.469 211.07 132.469 213.68V221.695C132.469 222.992 132.164 223.969 131.555 224.625C130.961 225.266 130.188 225.586 129.234 225.586C128.312 225.586 127.555 225.25 126.961 224.578C126.367 223.906 126.07 222.945 126.07 221.695V203.203C126.07 201.984 126.336 201.078 126.867 200.484C127.398 199.875 128.125 199.57 129.047 199.57C129.609 199.57 130.117 199.703 130.57 199.969C131.023 200.234 131.383 200.633 131.648 201.164C131.93 201.695 132.07 202.344 132.07 203.109ZM179.227 212.578C179.227 214.484 178.93 216.242 178.336 217.852C177.742 219.461 176.883 220.844 175.758 222C174.633 223.156 173.289 224.047 171.727 224.672C170.164 225.281 168.406 225.586 166.453 225.586C164.516 225.586 162.773 225.273 161.227 224.648C159.68 224.023 158.336 223.133 157.195 221.977C156.07 220.805 155.211 219.43 154.617 217.852C154.039 216.258 153.75 214.5 153.75 212.578C153.75 210.641 154.047 208.867 154.641 207.258C155.234 205.648 156.086 204.273 157.195 203.133C158.305 201.992 159.648 201.117 161.227 200.508C162.805 199.883 164.547 199.57 166.453 199.57C168.391 199.57 170.148 199.883 171.727 200.508C173.305 201.133 174.656 202.023 175.781 203.18C176.906 204.336 177.758 205.711 178.336 207.305C178.93 208.898 179.227 210.656 179.227 212.578ZM172.805 212.578C172.805 209.969 172.227 207.938 171.07 206.484C169.93 205.031 168.391 204.305 166.453 204.305C165.203 204.305 164.102 204.633 163.148 205.289C162.195 205.93 161.461 206.883 160.945 208.148C160.43 209.414 160.172 210.891 160.172 212.578C160.172 214.25 160.422 215.711 160.922 216.961C161.438 218.211 162.164 219.172 163.102 219.844C164.055 220.5 165.172 220.828 166.453 220.828C168.391 220.828 169.93 220.102 171.07 218.648C172.227 217.18 172.805 215.156 172.805 212.578ZM188.273 203.555L192.445 217.852L196.242 204.562C196.648 203.172 196.945 202.227 197.133 201.727C197.336 201.211 197.703 200.727 198.234 200.273C198.781 199.805 199.523 199.57 200.461 199.57C201.414 199.57 202.156 199.805 202.688 200.273C203.234 200.727 203.617 201.227 203.836 201.773C204.055 202.305 204.359 203.234 204.75 204.562L208.547 217.852L212.766 203.555C213.047 202.523 213.273 201.781 213.445 201.328C213.617 200.859 213.906 200.453 214.312 200.109C214.719 199.75 215.305 199.57 216.07 199.57C216.836 199.57 217.5 199.836 218.062 200.367C218.625 200.898 218.906 201.523 218.906 202.242C218.906 202.898 218.664 203.891 218.18 205.219L212.953 220.547C212.5 221.844 212.148 222.781 211.898 223.359C211.648 223.938 211.25 224.453 210.703 224.906C210.172 225.359 209.438 225.586 208.5 225.586C207.531 225.586 206.766 225.344 206.203 224.859C205.656 224.375 205.25 223.781 204.984 223.078C204.719 222.375 204.43 221.461 204.117 220.336L200.461 207.867L196.922 220.336C196.453 222.07 195.945 223.383 195.398 224.273C194.852 225.148 193.891 225.586 192.516 225.586C191.812 225.586 191.211 225.445 190.711 225.164C190.227 224.898 189.82 224.516 189.492 224.016C189.164 223.5 188.875 222.898 188.625 222.211C188.375 221.508 188.18 220.953 188.039 220.547L182.859 205.219C182.344 203.781 182.086 202.789 182.086 202.242C182.086 201.555 182.359 200.938 182.906 200.391C183.453 199.844 184.125 199.57 184.922 199.57C185.984 199.57 186.703 199.875 187.078 200.484C187.453 201.078 187.852 202.102 188.273 203.555ZM229.148 203.109V203.883C230.273 202.398 231.5 201.312 232.828 200.625C234.172 199.922 235.711 199.57 237.445 199.57C239.133 199.57 240.641 199.938 241.969 200.672C243.297 201.406 244.289 202.445 244.945 203.789C245.367 204.57 245.641 205.414 245.766 206.32C245.891 207.227 245.953 208.383 245.953 209.789V221.695C245.953 222.977 245.656 223.945 245.062 224.602C244.484 225.258 243.727 225.586 242.789 225.586C241.836 225.586 241.062 225.25 240.469 224.578C239.875 223.906 239.578 222.945 239.578 221.695V211.031C239.578 208.922 239.281 207.312 238.688 206.203C238.109 205.078 236.945 204.516 235.195 204.516C234.055 204.516 233.016 204.859 232.078 205.547C231.141 206.219 230.453 207.148 230.016 208.336C229.703 209.289 229.547 211.07 229.547 213.68V221.695C229.547 222.992 229.242 223.969 228.633 224.625C228.039 225.266 227.266 225.586 226.312 225.586C225.391 225.586 224.633 225.25 224.039 224.578C223.445 223.906 223.148 222.945 223.148 221.695V203.203C223.148 201.984 223.414 201.078 223.945 200.484C224.477 199.875 225.203 199.57 226.125 199.57C226.688 199.57 227.195 199.703 227.648 199.969C228.102 200.234 228.461 200.633 228.727 201.164C229.008 201.695 229.148 202.344 229.148 203.109ZM84.375 259.156V259.93C85.5781 258.445 86.8281 257.359 88.125 256.672C89.4219 255.969 90.8906 255.617 92.5312 255.617C94.5 255.617 96.3125 256.125 97.9688 257.141C99.625 258.156 100.93 259.641 101.883 261.594C102.852 263.547 103.336 265.859 103.336 268.531C103.336 270.5 103.055 272.312 102.492 273.969C101.945 275.609 101.188 276.992 100.219 278.117C99.25 279.227 98.1016 280.086 96.7734 280.695C95.4609 281.289 94.0469 281.586 92.5312 281.586C90.7031 281.586 89.1641 281.219 87.9141 280.484C86.6797 279.75 85.5 278.672 84.375 277.25V286.859C84.375 289.672 83.3516 291.078 81.3047 291.078C80.1016 291.078 79.3047 290.711 78.9141 289.977C78.5234 289.258 78.3281 288.203 78.3281 286.812V259.203C78.3281 257.984 78.5938 257.078 79.125 256.484C79.6562 255.875 80.3828 255.57 81.3047 255.57C82.2109 255.57 82.9453 255.883 83.5078 256.508C84.0859 257.117 84.375 258 84.375 259.156ZM96.9141 268.461C96.9141 266.773 96.6562 265.328 96.1406 264.125C95.625 262.906 94.9062 261.977 93.9844 261.336C93.0781 260.68 92.0703 260.352 90.9609 260.352C89.1953 260.352 87.7031 261.047 86.4844 262.438C85.2812 263.828 84.6797 265.875 84.6797 268.578C84.6797 271.125 85.2812 273.109 86.4844 274.531C87.6875 275.938 89.1797 276.641 90.9609 276.641C92.0234 276.641 93.0078 276.336 93.9141 275.727C94.8203 275.102 95.5469 274.172 96.0938 272.938C96.6406 271.703 96.9141 270.211 96.9141 268.461ZM108.469 277.695V249.945C108.469 248.664 108.75 247.695 109.312 247.039C109.891 246.383 110.664 246.055 111.633 246.055C112.602 246.055 113.383 246.383 113.977 247.039C114.57 247.68 114.867 248.648 114.867 249.945V277.695C114.867 278.992 114.562 279.969 113.953 280.625C113.359 281.266 112.586 281.586 111.633 281.586C110.695 281.586 109.93 281.25 109.336 280.578C108.758 279.906 108.469 278.945 108.469 277.695ZM137.672 277.977C136.125 279.18 134.625 280.086 133.172 280.695C131.734 281.289 130.117 281.586 128.32 281.586C126.68 281.586 125.234 281.266 123.984 280.625C122.75 279.969 121.797 279.086 121.125 277.977C120.453 276.867 120.117 275.664 120.117 274.367C120.117 272.617 120.672 271.125 121.781 269.891C122.891 268.656 124.414 267.828 126.352 267.406C126.758 267.312 127.766 267.102 129.375 266.773C130.984 266.445 132.359 266.148 133.5 265.883C134.656 265.602 135.906 265.266 137.25 264.875C137.172 263.188 136.828 261.953 136.219 261.172C135.625 260.375 134.383 259.977 132.492 259.977C130.867 259.977 129.641 260.203 128.812 260.656C128 261.109 127.297 261.789 126.703 262.695C126.125 263.602 125.711 264.203 125.461 264.5C125.227 264.781 124.711 264.922 123.914 264.922C123.195 264.922 122.57 264.695 122.039 264.242C121.523 263.773 121.266 263.18 121.266 262.461C121.266 261.336 121.664 260.242 122.461 259.18C123.258 258.117 124.5 257.242 126.188 256.555C127.875 255.867 129.977 255.523 132.492 255.523C135.305 255.523 137.516 255.859 139.125 256.531C140.734 257.188 141.867 258.234 142.523 259.672C143.195 261.109 143.531 263.016 143.531 265.391C143.531 266.891 143.523 268.164 143.508 269.211C143.508 270.258 143.5 271.422 143.484 272.703C143.484 273.906 143.68 275.164 144.07 276.477C144.477 277.773 144.68 278.609 144.68 278.984C144.68 279.641 144.367 280.242 143.742 280.789C143.133 281.32 142.438 281.586 141.656 281.586C141 281.586 140.352 281.281 139.711 280.672C139.07 280.047 138.391 279.148 137.672 277.977ZM137.25 268.719C136.312 269.062 134.945 269.43 133.148 269.82C131.367 270.195 130.133 270.477 129.445 270.664C128.758 270.836 128.102 271.188 127.477 271.719C126.852 272.234 126.539 272.961 126.539 273.898C126.539 274.867 126.906 275.695 127.641 276.383C128.375 277.055 129.336 277.391 130.523 277.391C131.789 277.391 132.953 277.117 134.016 276.57C135.094 276.008 135.883 275.289 136.383 274.414C136.961 273.445 137.25 271.852 137.25 269.633V268.719ZM172.992 273.664C172.992 274.461 172.75 275.312 172.266 276.219C171.797 277.125 171.07 277.992 170.086 278.82C169.117 279.633 167.891 280.289 166.406 280.789C164.922 281.289 163.25 281.539 161.391 281.539C157.438 281.539 154.352 280.391 152.133 278.094C149.914 275.781 148.805 272.688 148.805 268.812C148.805 266.188 149.312 263.867 150.328 261.852C151.344 259.836 152.812 258.281 154.734 257.188C156.656 256.078 158.953 255.523 161.625 255.523C163.281 255.523 164.797 255.766 166.172 256.25C167.562 256.734 168.734 257.359 169.688 258.125C170.656 258.891 171.391 259.711 171.891 260.586C172.406 261.445 172.664 262.25 172.664 263C172.664 263.766 172.375 264.414 171.797 264.945C171.234 265.477 170.547 265.742 169.734 265.742C169.203 265.742 168.758 265.609 168.398 265.344C168.055 265.062 167.664 264.617 167.227 264.008C166.445 262.82 165.625 261.93 164.766 261.336C163.922 260.742 162.844 260.445 161.531 260.445C159.641 260.445 158.117 261.188 156.961 262.672C155.805 264.141 155.227 266.156 155.227 268.719C155.227 269.922 155.375 271.031 155.672 272.047C155.969 273.047 156.398 273.906 156.961 274.625C157.523 275.328 158.203 275.867 159 276.242C159.797 276.602 160.672 276.781 161.625 276.781C162.906 276.781 164 276.484 164.906 275.891C165.828 275.297 166.641 274.391 167.344 273.172C167.734 272.453 168.156 271.891 168.609 271.484C169.062 271.078 169.617 270.875 170.273 270.875C171.055 270.875 171.703 271.172 172.219 271.766C172.734 272.359 172.992 272.992 172.992 273.664ZM196.453 270.148H183.938C183.953 271.602 184.242 272.883 184.805 273.992C185.383 275.102 186.141 275.938 187.078 276.5C188.031 277.062 189.078 277.344 190.219 277.344C190.984 277.344 191.68 277.258 192.305 277.086C192.945 276.898 193.562 276.617 194.156 276.242C194.75 275.852 195.297 275.438 195.797 275C196.297 274.562 196.945 273.969 197.742 273.219C198.07 272.938 198.539 272.797 199.148 272.797C199.805 272.797 200.336 272.977 200.742 273.336C201.148 273.695 201.352 274.203 201.352 274.859C201.352 275.438 201.125 276.117 200.672 276.898C200.219 277.664 199.531 278.406 198.609 279.125C197.703 279.828 196.555 280.414 195.164 280.883C193.789 281.352 192.203 281.586 190.406 281.586C186.297 281.586 183.102 280.414 180.82 278.07C178.539 275.727 177.398 272.547 177.398 268.531C177.398 266.641 177.68 264.891 178.242 263.281C178.805 261.656 179.625 260.266 180.703 259.109C181.781 257.953 183.109 257.07 184.688 256.461C186.266 255.836 188.016 255.523 189.938 255.523C192.438 255.523 194.578 256.055 196.359 257.117C198.156 258.164 199.5 259.523 200.391 261.195C201.281 262.867 201.727 264.57 201.727 266.305C201.727 267.914 201.266 268.961 200.344 269.445C199.422 269.914 198.125 270.148 196.453 270.148ZM183.938 266.516H195.539C195.383 264.328 194.789 262.695 193.758 261.617C192.742 260.523 191.398 259.977 189.727 259.977C188.133 259.977 186.82 260.531 185.789 261.641C184.773 262.734 184.156 264.359 183.938 266.516Z" fill="white"/>
<circle cx="142" cy="92" r="77.2727" fill="#D3FFFE" fill-opacity="0.3"/>
<mask id="path-3-inside-1_43_885" fill="white">
<path d="M157.317 14.5107C157.685 12.6493 156.475 10.8345 154.6 10.5444C135.342 7.56503 115.646 11.5074 99.0193 21.6692C97.4003 22.6587 96.9816 24.7995 98.0376 26.3759C99.0936 27.9523 101.224 28.3667 102.847 27.3834C117.954 18.2285 135.799 14.6568 153.266 17.2916C155.142 17.5746 156.949 16.3721 157.317 14.5107Z"/>
</mask>
<path d="M157.317 14.5107C157.685 12.6493 156.475 10.8345 154.6 10.5444C135.342 7.56503 115.646 11.5074 99.0193 21.6692C97.4003 22.6587 96.9816 24.7995 98.0376 26.3759C99.0936 27.9523 101.224 28.3667 102.847 27.3834C117.954 18.2285 135.799 14.6568 153.266 17.2916C155.142 17.5746 156.949 16.3721 157.317 14.5107Z" stroke="#332D57" stroke-width="16" mask="url(#path-3-inside-1_43_885)"/>
<mask id="path-4-inside-2_43_885" fill="white">
<path d="M64.2828 67.6016C62.4159 67.0155 60.4198 68.0522 59.912 69.9419C56.6907 81.9296 56.1304 94.4924 58.2887 106.745C60.447 118.998 65.2661 130.614 72.3896 140.779C73.5125 142.381 75.7427 142.674 77.297 141.485C78.8512 140.296 79.1404 138.077 78.0235 136.471C71.5867 127.21 67.2284 116.65 65.2672 105.516C63.3059 94.3818 63.7936 82.9683 66.679 72.066C67.1796 70.1745 66.1496 68.1877 64.2828 67.6016Z"/>
</mask>
<path d="M64.2828 67.6016C62.4159 67.0155 60.4198 68.0522 59.912 69.9419C56.6907 81.9296 56.1304 94.4924 58.2887 106.745C60.447 118.998 65.2661 130.614 72.3896 140.779C73.5125 142.381 75.7427 142.674 77.297 141.485C78.8512 140.296 79.1404 138.077 78.0235 136.471C71.5867 127.21 67.2284 116.65 65.2672 105.516C63.3059 94.3818 63.7936 82.9683 66.679 72.066C67.1796 70.1745 66.1496 68.1877 64.2828 67.6016Z" stroke="#332D57" stroke-width="16" mask="url(#path-4-inside-2_43_885)"/>
<mask id="path-5-inside-3_43_885" fill="white">
<path d="M177.8 21.5902C178.66 19.8989 177.989 17.8237 176.263 17.0349C173.83 15.9229 171.345 14.9299 168.815 14.0596C167.021 13.4423 165.104 14.484 164.562 16.3023C164.02 18.1207 165.058 20.0266 166.85 20.6506C168.985 21.3943 171.086 22.2335 173.146 23.1657C174.875 23.9479 176.94 23.2816 177.8 21.5902Z"/>
</mask>
<path d="M177.8 21.5902C178.66 19.8989 177.989 17.8237 176.263 17.0349C173.83 15.9229 171.345 14.9299 168.815 14.0596C167.021 13.4423 165.104 14.484 164.562 16.3023C164.02 18.1207 165.058 20.0266 166.85 20.6506C168.985 21.3943 171.086 22.2335 173.146 23.1657C174.875 23.9479 176.94 23.2816 177.8 21.5902Z" stroke="#332D57" stroke-width="16" mask="url(#path-5-inside-3_43_885)"/>
<circle cx="142" cy="92" r="63.5354" fill="#4E3871"/>
<circle cx="142" cy="92" r="62.9697" stroke="#332D57" stroke-width="8"/>
<mask id="mask0_43_885" style="mask-type:alpha" maskUnits="userSpaceOnUse" x="81" y="31" width="122" height="122">
<circle cx="142" cy="92.0001" r="60.101" fill="#0FCDC8"/>
</mask>
<g mask="url(#mask0_43_885)">
<circle cx="128.263" cy="92.0001" r="60.101" fill="#51396F"/>
</g>
<mask id="mask1_43_885" style="mask-type:alpha" maskUnits="userSpaceOnUse" x="81" y="31" width="122" height="122">
<circle cx="142" cy="92.0001" r="60.101" fill="#109B95"/>
</mask>
<g mask="url(#mask1_43_885)">
<path d="M116.672 70.9647C110.232 68.8182 94.7778 68.389 88.7678 53.793C82.7577 39.197 72.4546 71.2197 72.4546 101.444C72.4546 116.04 115.384 161.546 122.682 151.242C139.854 120.763 75.4494 110.03 95.6364 98.4394C105.084 96.7964 105.23 85.9821 102.843 81.7926C102.653 81.4591 102.614 81.0489 102.83 80.7312C106.894 74.7306 122.929 73.0503 116.672 70.9647Z" fill="#EFC928" stroke="#332D57" stroke-width="8"/>
<path d="M152.303 58.9445C143.03 48.6415 169.618 41.4866 184.071 39.197L209.828 69.6768C209.256 87.2778 206.222 122.823 198.667 124.197C189.222 125.914 187.076 87.7071 180.207 106.167C177.155 119.206 170.159 127.404 165.128 130.299C161.583 132.338 160.449 128.098 160.673 124.014C161.45 109.884 151.493 96.8795 148.869 95.0051C145.864 92.8586 150.157 86.8485 152.303 83.4142C154.45 79.9799 161.748 86.4192 174.197 87.7071C186.647 88.995 191.798 82.9849 187.076 79.9799C182.814 77.2678 181.35 73.8563 182.051 67.8521C182.206 66.5258 182.117 65.0226 181.01 64.2755C175.805 60.7614 162.817 70.6271 152.303 58.9445Z" fill="#EFC928" stroke="#332D57" stroke-width="8"/>
</g>
<path fill-rule="evenodd" clip-rule="evenodd" d="M121.71 49.176C121.71 46.1961 118.675 44.1989 116.083 45.6696C105.338 51.7666 96.9229 61.4937 92.5047 73.1837C91.5523 75.7037 93.5154 78.2627 96.2093 78.2627C97.9949 78.2627 99.5577 77.0996 100.212 75.4381C103.943 65.959 110.784 58.0441 119.477 52.949C120.826 52.1582 121.71 50.7398 121.71 49.176Z" fill="white"/>
<circle cx="91.6591" cy="85.9899" r="3.43434" fill="white"/>
<circle cx="197.265" cy="158.97" r="4.29293" fill="#332D57"/>
<circle cx="212.404" cy="145.232" r="6.86869" fill="#EFC928"/>
<circle cx="105.939" cy="144.374" r="8.87879" fill="#344160" stroke="#332D57" stroke-width="8"/>
<circle cx="70" cy="38" r="10" fill="#FBCE36"/>
<path fill-rule="evenodd" clip-rule="evenodd" d="M78 38C78 42.4183 74.4183 46 70 46C68.7442 46 67.556 45.7107 66.4984 45.195C64.6514 44.2944 62.4165 43.7343 60.6369 44.7617C58.5476 45.968 57.9075 48.75 59.7605 50.2949C62.5351 52.6082 66.105 54 70 54C78.8366 54 86 46.8366 86 38C86 29.1634 78.8366 22 70 22C61.1634 22 54 29.1634 54 38C54 39.7213 55.8933 40.5722 57.384 39.7116L60.0061 38.1977C61.2998 37.4508 62.0842 36.098 62.6946 34.7346C63.9438 31.9441 66.7449 30 70 30C74.4183 30 78 33.5817 78 38Z" fill="#332D57"/>
</svg>
